Coordinates
version=1
nRows=9
nColumns=24
inDegrees=yes

Units are S.I. units (second, meters, Newtons, ...)
Angles are in degrees.

endheader
time	pelvis_tilt	pelvis_list	pelvis_rotation	pelvis_tx	pelvis_ty	pelvis_tz	hip_flexion_r	hip_adduction_r	hip_rotation_r	knee_angle_r	ankle_angle_r	subtalar_angle_r	mtp_angle_r	hip_flexion_l	hip_adduction_l	hip_rotation_l	knee_angle_l	ankle_angle_l	subtalar_angle_l	mtp_angle_l	lumbar_extension	lumbar_bending	lumbar_rotation
      4.35000000	     -5.90863979	     -7.47253748	     -0.19493469	     -0.89858596	     -0.01651311	     -0.26849077	     19.60674731	     12.07842737	      1.46087828	    -18.00915328	     -0.82483997	    -11.79209609	      2.34124358	     10.64250917	    -14.36982455	     -9.71747218	    -60.02704406	    -23.55990350	    -10.29518935	     15.05812814	      1.12565316	      9.10627248	     -0.35781327
      4.35500000	     -5.93294039	     -7.21754546	     -0.12300960	     -0.89231794	     -0.01540786	     -0.26833969	     19.01352170	     11.77537812	      1.31252169	    -17.62758088	     -0.74002344	    -11.62211788	      3.94118101	     11.63252452	    -14.02141288	     -9.44581956	    -60.80146466	    -21.48748865	    -10.89920990	     11.32103590	      1.11972064	      8.80939104	     -0.10137220
      4.36000000	     -5.90902469	     -6.96135167	      0.02608223	     -0.88598086	     -0.01419390	     -0.26826662	     18.36068363	     11.45642439	      1.13934182	    -17.25688673	     -0.46647480	    -11.35696493	      4.68012218	     12.54763878	    -13.62876904	     -9.07492907	    -61.37811596	    -20.04194627	    -11.74201146	      9.43895594	      1.09700897	      8.50749926	      0.02528719
      4.36500000	     -5.92797568	     -6.73643142	      0.15569458	     -0.87966679	     -0.01309161	     -0.26819053	     17.75605791	     11.18738077	      1.08533910	    -16.89758866	     -0.18091267	    -11.15138202	      5.17740500	     13.51227031	    -13.27256875	     -8.77294434	    -61.92779068	    -18.57095106	    -12.62988689	      6.97368500	      1.11384329	      8.23959146	      0.10486472
      4.37000000	     -5.93316418	     -6.46825545	      0.26284129	     -0.87328040	     -0.01192876	     -0.26807118	     17.12434596	     10.89069172	      1.05653317	    -16.52585128	      0.05840955	    -11.04636037	      5.46712264	     14.42237834	    -12.85237333	     -8.49168691	    -62.38336315	    -17.08532067	    -13.36343297	      4.07905356	      1.13271070	      7.92362925	      0.31327315
      4.37500000	     -5.97238221	     -6.20945413	      0.36143644	     -0.86695321	     -0.01088825	     -0.26796947	     16.55621512	     10.60053547	      1.05955002	    -16.21577892	      0.42470923	    -10.80622553	      5.62075877	     15.37095686	    -12.43654565	     -8.23033235	    -62.79611001	    -15.67397496	    -14.08137081	      1.27083693	      1.18292397	      7.61910953	      0.40755586
      4.38000000	     -5.96327333	     -5.93417282	      0.44613014	     -0.86065558	     -0.00979286	     -0.26783460	     15.93685431	     10.30628564	      1.05895901	    -15.89828681	      0.72183310	    -10.67204710	      5.63802540	     16.24436758	    -11.99611419	     -8.00761560	    -63.13231340	    -14.25067932	    -14.73549040	     -1.98327065	      1.17953936	      7.29291612	      0.61936568
      4.38500000	     -6.02105032	     -5.67984201	      0.53067236	     -0.85433213	     -0.00883146	     -0.26773498	     15.39243611	     10.02045272	      1.06929192	    -15.59905705	      1.12481951	    -10.36607731	      5.66592479	     17.18097920	    -11.57282692	     -7.79047622	    -63.40580314	    -12.91620681	    -15.34677179	     -4.90132493	      1.25612580	      6.99236481	      0.67267058
      4.39000000	     -5.96562012	     -5.39905334	      0.58934225	     -0.84802705	     -0.00772083	     -0.26755853	     14.70621720	      9.73069010	      1.13549708	    -15.25742153	      1.40707118	    -10.23773554	      5.62044381	     17.95050225	    -11.12761716	     -7.63354445	    -63.58340391	    -11.43258456	    -15.77756060	     -8.49916440	      1.20202295	      6.66375066	      0.87346820
